<?xml version="1.0" encoding="utf-8"?>
<!-- Generator: Adobe Illustrator 22.1.0, SVG Export Plug-In . SVG Version: 6.00 Build 0)  -->
<svg version="1.1" id="Artwork" xmlns="http://www.w3.org/2000/svg" xmlns:xlink="http://www.w3.org/1999/xlink" x="0px" y="0px"
	 viewBox="0 0 24 24" enable-background="new 0 0 24 24" xml:space="preserve">
<rect fill="#E5F5FA" width="24" height="24"/>
<circle fill="#F78B53" cx="12" cy="12" r="10"/>
<path fill="#4E426C" d="M18.6,12.2c0,3.4-2.5,6.3-5.9,6.8v2l-3.9-3.4l3.9-3.4v2.3c1.9-0.4,3.4-2.2,3.4-4.2c0-1.4-0.7-2.7-1.7-3.5
	l1.9-1.7C17.7,8.3,18.6,10.2,18.6,12.2z M5.4,11.8C5.4,8.4,8,5.5,11.3,5V3l3.9,3.4c-1.3,1.1-2.6,2.3-3.9,3.4V7.6
	C9.4,8,7.9,9.7,7.9,11.8c0,1.4,0.7,2.7,1.7,3.5l-1.9,1.7C6.3,15.7,5.4,13.9,5.4,11.8z"/>
</svg>
